<svg width="1215" height="226" viewBox="0 0 129 24" fill="none" xmlns="http://www.w3.org/2000/svg">
<path d="M61.1759 4.4603H64.4382C64.6547 4.4603 64.8063 4.66726 64.7413 4.87422L59.7323 20.3247C59.689 20.4532 59.5663 20.5459 59.4292 20.5459H56.0153C55.8782 20.5459 55.7555 20.4603 55.7122 20.3318L51.7425 8.98481L47.8739 20.3318C47.8306 20.4603 47.7079 20.5459 47.5708 20.5459H44.0558C43.9187 20.5459 43.796 20.4603 43.7527 20.3247L38.6932 4.87422C38.6282 4.66726 38.7798 4.4603 38.9964 4.4603H42.4608C42.6051 4.4603 42.7278 4.55307 42.7639 4.68867L46.0046 15.5932L49.7722 4.67439C49.8155 4.54593 49.9382 4.4603 50.0752 4.4603H53.6263C53.7634 4.4603 53.8861 4.54593 53.9294 4.67439L57.697 15.5932L60.8727 4.6958C60.9088 4.55307 61.0387 4.4603 61.1759 4.4603ZM80.1655 12.3247C80.1655 12.703 80.1433 13.0383 80.1143 13.2667C80.0928 13.4237 79.9631 13.5451 79.797 13.5451H68.1768C68.2779 15.9857 70.2122 17.7413 72.6156 17.7413C74.8169 17.7413 76.0077 16.6565 76.5926 15.2078C76.6571 15.0508 76.8232 14.9723 76.9819 15.0223L79.6524 15.8572C79.8259 15.9143 79.9201 16.0999 79.8549 16.264C78.8947 18.9259 76.3761 21.0383 72.6084 21.0383C68.1985 21.0383 64.2938 17.8698 64.2938 12.4175C64.2938 7.32916 68.1047 3.96075 72.2115 3.96075C77.2273 3.96788 80.1655 7.23639 80.1655 12.3247ZM76.2531 10.7404C76.1886 8.85637 74.9178 7.17216 72.2475 7.17216C69.808 7.17216 68.4078 9.02051 68.2707 10.7404H76.2531ZM109.764 4.67439L105.629 15.9571L101.406 4.66726C101.363 4.54593 101.24 4.4603 101.11 4.4603H97.5302C97.307 4.4603 97.1484 4.68867 97.2344 4.89562L103.586 20.3461C103.636 20.4674 103.752 20.5459 103.882 20.5459H107.325C107.455 20.5459 107.577 20.4674 107.621 20.3461L113.749 4.89562C113.828 4.68867 113.676 4.46743 113.452 4.46743H110.068C109.93 4.4603 109.815 4.54593 109.764 4.67439ZM128.956 13.2667C128.934 13.4237 128.804 13.5451 128.638 13.5451H117.018C117.119 15.9857 119.053 17.7413 121.456 17.7413C123.658 17.7413 124.849 16.6565 125.433 15.2078C125.499 15.0508 125.665 14.9723 125.823 15.0223L128.494 15.8572C128.667 15.9143 128.761 16.0999 128.696 16.264C127.736 18.9259 125.217 21.0383 121.45 21.0383C117.04 21.0383 113.135 17.8698 113.135 12.4175C113.135 7.32916 116.946 3.96075 121.052 3.96075C126.061 3.96075 128.999 7.22925 128.999 12.3176C129.006 12.6958 128.977 13.0383 128.956 13.2667ZM125.095 10.7404C125.029 8.85637 123.759 7.17216 121.089 7.17216C118.649 7.17216 117.249 9.02051 117.112 10.7404H125.095ZM97.8557 12.4745V20.2319C97.8557 20.4032 97.7111 20.5459 97.5376 20.5459H94.3406C94.1597 20.5459 94.0159 20.4032 94.0226 20.2248C94.03 19.7894 94.0515 18.983 94.0515 18.2337C93.3152 19.7823 91.6122 20.9741 89.2738 20.9741C84.4954 20.9741 81.4281 17.2417 81.4281 12.4175C81.4281 7.76451 84.763 3.94647 89.6638 3.94647C89.772 3.94647 89.8803 3.95361 89.9885 3.95361C94.7662 3.96075 97.8557 7.6574 97.8557 12.4745ZM94.0159 12.446C94.0085 9.13472 92.0667 7.34342 89.6705 7.33631C87.0866 7.35061 85.2968 9.32738 85.2968 12.4246C85.2968 15.4933 86.9999 17.677 89.7068 17.677C92.2402 17.6699 94.0011 15.5361 94.0159 12.446ZM14.3629 9.21316V14.644C14.3629 19.7252 18.4769 23.9215 23.5364 24C25.8821 24 28.1268 23.1293 29.8589 21.5521C31.5767 19.9822 32.6305 17.8555 32.8253 15.5646C32.8976 14.8653 32.9264 12.703 32.9264 11.9964C32.9264 11.2899 32.9047 9.12754 32.8253 8.42817C32.6305 6.13737 31.5767 4.0107 29.8589 2.44068C28.1268 0.870653 25.8821 0 23.5364 0C21.5371 0 19.6101 0.642283 18.015 1.81266C17.9428 1.8769 17.9211 2.00535 18.0005 2.11953L19.9493 5.31667C20.0359 5.41659 20.1442 5.42373 20.238 5.35236V5.35949C21.1618 4.58875 22.3311 4.16056 23.5364 4.16056C24.7778 4.16056 25.9687 4.60303 26.8997 5.40945C27.8236 6.20874 28.4299 7.30775 28.6031 8.49958C28.7186 9.27027 28.733 11.2043 28.733 12.0036C28.733 12.8029 28.733 14.537 28.6031 15.479C28.4371 16.678 27.8381 17.7841 26.907 18.5905C25.9687 19.404 24.7706 19.8537 23.5292 19.8537H23.5219C22.1867 19.8251 20.9381 19.2899 20.007 18.3336C19.0759 17.3774 18.5563 16.1213 18.5563 14.7939V9.22035V9.3559C18.5563 4.27475 14.4423 0.0785013 9.38283 0C7.0371 0 4.79244 0.870652 3.06745 2.44781C1.34968 4.01784 0.295919 6.14451 0.101045 8.43528C0.0216526 9.13472 0 11.2899 0 11.9964C0 12.703 0.0216526 14.8653 0.101045 15.5646C0.295919 17.8555 1.34968 19.9822 3.06745 21.5521C4.79244 23.1293 7.0371 24 9.39002 24C11.3892 24 13.3163 23.3577 14.9114 22.1873C14.9836 22.1231 15.0053 21.9946 14.9259 21.8804L12.9771 18.6833C12.8905 18.5834 12.7822 18.5762 12.6884 18.6476V18.6405C11.7646 19.4112 10.5953 19.8394 9.39002 19.8394C8.1486 19.8394 6.95771 19.3969 6.02664 18.5905C5.1028 17.7913 4.49653 16.6922 4.3233 15.5004C4.20782 14.7297 4.19338 12.7957 4.19338 11.9964C4.19338 11.1971 4.19338 9.463 4.3233 8.52098C4.48931 7.32203 5.08836 6.21587 6.01942 5.40945C6.95771 4.59589 8.15579 4.14629 9.39721 4.14629H9.40448C10.7397 4.17484 11.9883 4.71007 12.9194 5.66636C13.8433 6.62265 14.3629 7.87865 14.3629 9.21316Z" fill="#202328"/>
</svg>
